<svg xmlns="http://www.w3.org/2000/svg" xmlns:xlink="http://www.w3.org/1999/xlink" viewBox="0 0 3407 2037"><defs><style>.cls-1{fill:none;}.cls-2{fill:#e9e1cb;}.cls-3{opacity:0.2;fill:url(#pattern);}</style><pattern id="pattern" data-name="pattern" width="149.5" height="238" patternTransform="translate(135.73 516.15) scale(0.92 0.85)" patternUnits="userSpaceOnUse" viewBox="0 0 149.5 238"><rect class="cls-1" width="149.5" height="238"/><path class="cls-2" d="M148.1,266.11c3.3-.71,7.33,1.08,9.63,3,1.35,1.14,3.74,4.3,3.88,6.73a11.09,11.09,0,0,1,10.6-1.71c5.07,1.87,7.5,6.86,7.83,12,4.65-1.45,10,1.06,13.28,4.42A16,16,0,0,1,196.56,308a21.33,21.33,0,0,1,3,.76c2.49-7,3-13.21-.92-20-3.57-6.21-9.29-8.92-16.27-8.36a1.41,1.41,0,0,1-.41,0,.53.53,0,0,1-.34-.14.38.38,0,0,1-.16-.23c-1.95-9.25-9.84-13.55-18.77-10.3h0a1.08,1.08,0,0,1-1.12-.3c-1.4-2.32-2.33-4.28-4.69-5.86a14.62,14.62,0,0,0-7.81-2.16c-.33,0,.27-.71.49-.82a.63.63,0,0,1,.16-.36c5-6.3,7.2-13.3,4.65-21.16-1.38-4.27-4.86-9.19-4.89-13.91a16.56,16.56,0,0,1-.14-3.09,4.55,4.55,0,0,1,.13-1.31c.07-.17.18-.13.25.06a42.16,42.16,0,0,0,9.49,15.29c3.48,3.52,7.38,6.88,9.35,11.54a18.46,18.46,0,0,1,1.43,6.74,13.31,13.31,0,0,1,8.22-4.64c5.63-.74,11,2.51,11.7,8.32.13,1.08-1.69,1-2.26.69a13.85,13.85,0,0,0-13.36-.72c-2.59,1.22-4.24,3.45-6.26,5.36a17.8,17.8,0,0,1-2.56,3.87,14,14,0,0,1,17.42,11.83c5.59-2.11,13,2,16.32,6.18a22.2,22.2,0,0,1,2.67,23.43.31.31,0,0,1,.1-.05c12.75-5.32,21.11-18.19,14.93-31.89A23.63,23.63,0,0,0,208,266.47c0,.21,0,.41,0,.62-.6,10.57-16.65,6-11.53-1.84,2-3,5.37-3.39,8.56-2.64-.14-.8-.3-1.6-.5-2.33-1.06-3.95-3.42-7.38-6-10.49C190,239.47,178,232.51,167.34,224.55c-7.56-5.67-16.64-13.43-18.09-23.37-.07-.49.38-1.24.54-1,2,3.59,4,8.11,6.45,11.45A46.06,46.06,0,0,0,164.3,220c5.64,4.59,11.73,8.7,17.67,12.88,10.2,7.2,24.47,17.16,25.94,30.76a9.3,9.3,0,0,1,.9.43,25,25,0,0,1,11.44,13.51c4.85,13.29-3,29.76-17.38,32.68l-.16,0a15.83,15.83,0,0,1,5,4.41c5.22,7.09,3.75,19.8-5.09,23.44-10.09,4.16-19.54-7.58-12.37-16.13.35-.41,1.48-.2,1.1.43a10.43,10.43,0,0,0-.3,11c3.37,5.33,10.8,5,14.53.22a15.3,15.3,0,0,0,.7-17c-8.26-13.46-26.07-5.24-33.78,4-7.85,9.37-12.37,20.9-15.35,32.61-.58,2.28-1.07,4.56-1.53,6.85,4.91-7.43,12.46-14.19,20.76-15.31,8.53-1.15,17.94,4.51,15.91,14.1-.14.64-1.23.69-1.68.51-2.23-.92-3.71-2.44-5.61-3.89-4-3.07-8.76-3.52-13.55-1.88-7.52,2.56-15.05,12.71-17.38,14.82-.14.74-.27,1.48-.4,2.22-.36,2-.82,3.74-2.37,4.65a66.43,66.43,0,0,0,4,12.34c1.86,3.83,4.1,7.32,4.48,11.67.54,6.11-2,13.39-5.78,18.75a40.22,40.22,0,0,1,6.35-2.81,31.74,31.74,0,0,1,8.72-2.34c1.42-.11,5.22.2,5.19.62-.31,4-4.57,8.46-7.7,10.73-3.61,2.62-11.14,4.44-13.13,4.5a13.48,13.48,0,0,1,5.26,5.08c3.38,5.64,2.78,13.46.44,19.32-.36.91-2.51.67-2.13-.38,2.82-7.62,1.4-23.7-8.18-23.35-.3,0-.69-1.28-.34-1.36a8.67,8.67,0,0,1,3.68.23h0c.05-1.34.41-2.43,0-3.78a5.14,5.14,0,0,0-1.41-2.31,4,4,0,0,0-1.49-.72s.14-.08.13-.13.5-.76,1-1.88c1.44-3,3.51-5.64,4.86-8.67,2-4.54,3.12-9.72,1.74-14.61-2-7.2-7.11-12.72-7.7-20.41-.06-.38-.11-.84-.11-.95,0-.39.37-.31.76-.5,2.13-1.05,1.88-6,2-7.65.27-3.11.79-6.17,1.34-9.24a91.74,91.74,0,0,1,5.5-19.08,26.15,26.15,0,0,0-2.16-1.72c-2.25-1.63-4.81-3.37-7.66-3.43-.47,0-.16-1.43.11-1.46,3.26-.34,8.06,2.4,10.5,4.74.84-1.92,1.77-3.86,2.78-5.78a39.12,39.12,0,0,0-5.29-4,15.7,15.7,0,0,0-8.45-2.78c-.26,0-.27-1.43,0-1.49a5.66,5.66,0,0,1,2,.1c.89-7.57,2.13-14.81,2.71-22.42.37-4.82,2.76-25.31-4.11-25.27-1,0-1-.67-.73-.95a2.46,2.46,0,0,1,1.09-.13c7.44.5,6.21,12.68,6.17,17.85a136.72,136.72,0,0,1-.86,13.84c1.2-3.86,2.56-7.62,3.81-11.09s3.66-13.78,9.23-12.95c6.61,1,1.47,17-3.61,29.62,1.32-1.68,2.67-3.27,3.91-4.73,3.38-4,10-13.16,16.19-11.89,6,1.24,1.68,7.34-.79,9.76a89.12,89.12,0,0,0-10.14,11.22c-.15.22-.29.44-.44.65a33.12,33.12,0,0,1,8.35-5.86,25.35,25.35,0,0,1,12.81-2.33c1.49-4.4,1.88-8.83-.48-13.1a13.7,13.7,0,0,0-14.61-7,.93.93,0,0,1-.68-.14,1,1,0,0,1-.77-.71c-.57-3.66-1.25-7.28-4.34-9.69-4-3.11-8.81-2.25-12.43.91a.89.89,0,0,1-.7.1,1,1,0,0,1-.51-.37,8.65,8.65,0,0,1-.9-2.6,10.64,10.64,0,0,0-2.3-4.24,9.18,9.18,0,0,0-8.53-2.9C147.68,268.05,147.65,266.21,148.1,266.11Zm13.7-24.34c-2.33-2.61-5.43-5.3-8-8.29.08.19.15.39.23.58,1.3,3.08,2.7,6.18,3.15,9.53.86,6.33-1.7,11.91-5.34,16.89,4.08.36,9.12,3.34,10.65,7C169,259.4,168.82,249.65,161.8,241.77Zm24.85,14.43c-1.87-4.38-7.13-5.69-11.55-3.51a13.38,13.38,0,0,0-5.37,5.12c0,.12,0,.23-.06.35C174.27,254.6,181.07,254.23,186.65,256.2Zm11.86,13.27c1.91,4.69,6.78-.09,6.86-3.05,0-.42,0-.86,0-1.3C202.29,264.26,197,265.68,198.51,269.47ZM153.37,423a6.58,6.58,0,0,1,.79,4.32c3.84-1.34,7.76-2.35,11-4.91a26.73,26.73,0,0,0,6.93-7.79,41.4,41.4,0,0,0-20,6.77A7.53,7.53,0,0,1,153.37,423Zm17.18-71.31a18.17,18.17,0,0,1,10.65-.37c3.64,1.08,5.87,4.15,9,5.86a10.12,10.12,0,0,0-7.31-10.46c-5.24-1.68-10.57.39-14.84,3.45-4.74,3.4-8.15,7.59-11.37,12.1C160.28,357.57,165.08,353.49,170.55,351.73Zm-4.26-68c-1.35.38-3,5.3-3.55,6.6-1.37,3.38-2.59,6.83-3.71,10.3-2.32,7.22-3.66,15.2-6.2,22.25a21.16,21.16,0,0,1,3.68,1.53c2.49-6.68,5.59-13.27,7.88-20C165.12,302.25,172.06,282.1,166.29,283.75Zm11.77,22.59c1.84-1.87,5.41-4.09,6.25-6.63,1.11-3.4-1.78-3.85-4.32-2.21-5.29,3.4-9.18,8.86-11.63,11.89a75.67,75.67,0,0,0-9.7,16,18.08,18.08,0,0,1,4.74,3.46c.07-.12,5.08-10.82,8.33-15.19A68.23,68.23,0,0,1,178.06,306.34Zm23.34,3.18v0h0A.05.05,0,0,1,201.4,309.52Z"/><path class="cls-2" d="M151.13,267.87c-3.14-.2-6.49.48-8.79,3a10.64,10.64,0,0,0-2.3,4.24,8.36,8.36,0,0,1-.91,2.6.9.9,0,0,1-.5.37.89.89,0,0,1-.7-.1c-3.62-3.16-8.45-4-12.43-.91-3.09,2.41-3.77,6-4.34,9.69a1,1,0,0,1-.77.71.93.93,0,0,1-.68.14,13.7,13.7,0,0,0-14.61,7c-2.36,4.27-2,8.7-.48,13.1a25.35,25.35,0,0,1,12.81,2.33,33.12,33.12,0,0,1,8.35,5.86c-.15-.21-.29-.43-.44-.65a89.12,89.12,0,0,0-10.14-11.22c-2.47-2.42-6.8-8.52-.79-9.76,6.18-1.27,12.81,7.9,16.19,11.89,1.24,1.46,2.59,3.05,3.91,4.73-5.08-12.61-10.22-28.64-3.61-29.62,5.57-.83,8,9.45,9.23,12.95s2.61,7.23,3.81,11.09a136.72,136.72,0,0,1-.86-13.84c0-5.17-1.27-17.35,6.17-17.85.79-.05,1,.92.19,1-6.79,1.05-4.31,20.48-3.94,25.3.58,7.61,1.82,14.85,2.71,22.42a4.25,4.25,0,0,1,2-.09c.31.08.71,1.63.45,1.61-4.18-.24-7.18,1.66-9.08,2.8a31.61,31.61,0,0,0-5,3.88c1,1.92,1.94,3.86,2.78,5.78,2.44-2.34,7.36-5.06,10.92-4.74.27,0,.45,1.61,0,1.58-3.46-.21-5.7,1.68-7.95,3.31a26.15,26.15,0,0,0-2.16,1.72,91.74,91.74,0,0,1,5.5,19.08c.55,3.07,1.07,6.13,1.34,9.24.15,1.63-.28,6.63,1.85,7.68a1.45,1.45,0,0,0,1.48-.13,9.32,9.32,0,0,0-.9,1.49c-.59,7.69-5.43,13.27-7.45,20.47-1.38,4.89-.28,10.07,1.74,14.61,1.35,3,3.42,5.71,4.86,8.67a7.31,7.31,0,0,0,1.12,1.76s.13.06.12.11.13.31.09.33a2,2,0,0,0-1.65.53,5,5,0,0,0-1.41,2.31c-.42,1.35-.06,2.44,0,3.78h0a10.93,10.93,0,0,1,4.52-.18c.34.13-.8,1.33-1.1,1.36-11.76,1.22-11.08,15.68-8.26,23.3.38,1.05-1.77,1.29-2.13.38-2.34-5.86-2.94-13.68.44-19.32a13.48,13.48,0,0,1,5.26-5.08c-2.07,0-9.52-1.88-13.13-4.5-3.13-2.27-7.39-6.71-7.7-10.73,0-.42,3.77-.73,5.19-.62a31.74,31.74,0,0,1,8.72,2.34A40.22,40.22,0,0,1,145,418c-3.82-5.36-6.32-12.64-5.78-18.75.38-4.35,2.62-7.84,4.48-11.67a66.43,66.43,0,0,0,4-12.34c-1.55-.91-2-2.64-2.37-4.65-.13-.74-.26-1.48-.4-2.22-2.33-2.11-9.86-12.26-17.38-14.82-4.79-1.64-9.5-1.19-13.55,1.88-1.9,1.45-3.38,3-5.61,3.89-.45.18-1.54.13-1.68-.51-2-9.59,7.38-15.25,15.91-14.1,8.3,1.12,15.85,7.88,20.76,15.31-.46-2.29-1-4.57-1.53-6.85-3-11.71-7.5-23.24-15.35-32.61-7.71-9.21-25.52-17.43-33.78-4a15.3,15.3,0,0,0,.7,17c3.73,4.77,11.16,5.11,14.53-.22a10.43,10.43,0,0,0-.3-11c-.38-.63.75-.84,1.1-.43,7.17,8.55-2.28,20.29-12.37,16.13-8.84-3.64-10.31-16.35-5.09-23.44a15.83,15.83,0,0,1,5-4.41l-.16,0c-14.36-2.92-22.23-19.39-17.38-32.68A25,25,0,0,1,90.19,264c.29-.16.59-.3.89-.43,1.48-13.6,15.75-23.56,26-30.76,5.94-4.18,12-8.29,17.67-12.88a46.06,46.06,0,0,0,8.06-8.27,115.69,115.69,0,0,0,6.74-11.35c.16-.28.43.59.35,1.09-1.44,9.94-10.63,17.46-18.19,23.13-10.61,8-22.68,14.92-31.22,25.24-2.57,3.11-4.93,6.54-6,10.49-.2.73-.36,1.53-.5,2.33,3.19-.75,6.6-.37,8.56,2.64,5.12,7.87-10.93,12.41-11.53,1.84,0-.21,0-.41,0-.62a23.63,23.63,0,0,0-8.83,10.33c-6.18,13.7,2.18,26.57,14.93,31.89l.1.05a22.2,22.2,0,0,1,2.67-23.43c3.29-4.22,10.73-8.29,16.32-6.18a14,14,0,0,1,17.42-11.83,17.8,17.8,0,0,1-2.56-3.87c-2-1.91-3.67-4.14-6.26-5.36a13.85,13.85,0,0,0-13.36.72c-.57.33-2.4.39-2.26-.69.75-5.81,6.07-9.06,11.7-8.32a13.31,13.31,0,0,1,8.22,4.64,18.46,18.46,0,0,1,1.43-6.74c2-4.66,5.87-8,9.35-11.54,4.25-4.29,7.18-9.6,9.6-15.45.17-.43.48,1.22.52,1.68a9.8,9.8,0,0,1-.39,2.82c0,4.72-3.51,9.64-4.89,13.91-2.55,7.86-.17,15,4.83,21.3.11.13.36.38.37.49.22.12.29.58,0,.58a15.23,15.23,0,0,0-7.67,2.13c-2.36,1.58-3.29,3.54-4.69,5.86a1.08,1.08,0,0,1-1.12.3h0c-8.93-3.25-16.82,1.05-18.77,10.3a.38.38,0,0,1-.16.23.53.53,0,0,1-.34.14,1.41,1.41,0,0,1-.41,0c-7-.56-12.7,2.15-16.27,8.36-3.9,6.81-3.41,13.05-.92,20a21.33,21.33,0,0,1,3-.76,16,16,0,0,1,3.24-17.48c3.27-3.36,8.63-5.87,13.28-4.42.33-5.12,2.76-10.11,7.83-12a11.09,11.09,0,0,1,10.6,1.71c.14-2.43,2.53-5.59,3.88-6.73,2.3-1.95,7.07-3.88,10.07-2.89C151.77,266.39,151.58,267.9,151.13,267.87Zm-14.65-.35c1.53-3.7,6.57-6.68,10.65-7-3.64-5-6.2-10.56-5.34-16.89.45-3.35,1.85-6.45,3.14-9.53.09-.19.16-.39.24-.58-2.54,3-5.64,5.68-8,8.29C130.18,249.65,130,259.4,136.48,267.52Zm-7.15-9.36c0-.12-.05-.23-.06-.35a13.38,13.38,0,0,0-5.37-5.12c-4.42-2.18-9.68-.87-11.55,3.51C117.93,254.23,124.73,254.6,129.33,258.16Zm-35.67,7c0,.44,0,.88,0,1.3.08,3,5,7.58,6.86,3.05C102.07,265.69,96.71,264.26,93.66,265.12Zm53.18,156.31a41.4,41.4,0,0,0-20-6.77,26.73,26.73,0,0,0,6.93,7.79c3.28,2.56,7.2,3.57,11,4.91a6.58,6.58,0,0,1,.79-4.32A7.53,7.53,0,0,1,146.84,421.43Zm-4.55-59.12c-3.22-4.51-6.63-8.7-11.37-12.1-4.27-3.06-9.6-5.13-14.84-3.45a10.12,10.12,0,0,0-7.31,10.46c3.16-1.71,5.39-4.78,9-5.86a18.17,18.17,0,0,1,10.65.37C133.92,353.49,138.72,357.57,142.29,362.31Zm-7.68-57.91c2.29,6.76,5.39,13.35,7.88,20a22.54,22.54,0,0,1,3.79-1.47c-2.94-7-4-15.09-6.31-22.31-1.12-3.47-2.34-6.92-3.71-10.3-.52-1.3-2.2-6.22-3.55-6.6C126.94,282.1,133.88,302.25,134.61,304.4Zm-7.34,9.3c3.25,4.37,8.26,15.07,8.33,15.19a18.08,18.08,0,0,1,4.74-3.46,75.67,75.67,0,0,0-9.7-16c-2.45-3-6.35-8.49-11.63-11.89-2.54-1.64-5.43-1.19-4.32,2.21.84,2.54,4.41,4.76,6.25,6.63A68.23,68.23,0,0,1,127.27,313.7Zm-29.69-4.14h0v0A.05.05,0,0,1,97.58,309.56Z"/><path class="cls-2" d="M-1.4,266.11c3.3-.71,7.33,1.08,9.63,3,1.35,1.14,3.74,4.3,3.88,6.73a11.09,11.09,0,0,1,10.6-1.71c5.07,1.87,7.5,6.86,7.83,12,4.65-1.45,10,1.06,13.28,4.42A16,16,0,0,1,47.06,308a21.33,21.33,0,0,1,3,.76c2.49-7,3-13.21-.92-20-3.57-6.21-9.29-8.92-16.27-8.36a1.41,1.41,0,0,1-.41,0,.53.53,0,0,1-.34-.14.38.38,0,0,1-.16-.23c-2-9.25-9.84-13.55-18.77-10.3h0a1.08,1.08,0,0,1-1.12-.3c-1.4-2.32-2.33-4.28-4.69-5.86a14.62,14.62,0,0,0-7.81-2.16c-.33,0,.27-.71.49-.82a.63.63,0,0,1,.16-.36c5-6.3,7.2-13.3,4.65-21.16C3.44,234.83,0,229.91-.07,225.19a16.56,16.56,0,0,1-.14-3.09,4.55,4.55,0,0,1,.13-1.31c.07-.17.18-.13.25.06a42.16,42.16,0,0,0,9.49,15.29C13.14,239.66,17,243,19,247.68a18.46,18.46,0,0,1,1.43,6.74,13.31,13.31,0,0,1,8.22-4.64c5.63-.74,11,2.51,11.7,8.32.13,1.08-1.69,1-2.26.69a13.85,13.85,0,0,0-13.36-.72c-2.59,1.22-4.24,3.45-6.26,5.36a17.8,17.8,0,0,1-2.56,3.87,14,14,0,0,1,17.42,11.83c5.59-2.11,13,2,16.32,6.18a22.2,22.2,0,0,1,2.67,23.43l.1-.05c12.75-5.32,21.11-18.19,14.93-31.89a23.63,23.63,0,0,0-8.83-10.33c0,.21,0,.41,0,.62-.6,10.57-16.65,6-11.53-1.84,2-3,5.37-3.39,8.56-2.64-.14-.8-.3-1.6-.5-2.33-1.06-3.95-3.42-7.38-6-10.49-8.54-10.32-20.61-17.28-31.22-25.24C10.28,218.88,1.2,211.12-.25,201.18c-.07-.49.38-1.24.54-1,2,3.59,4,8.11,6.45,11.45A46.06,46.06,0,0,0,14.8,220c5.64,4.59,11.73,8.7,17.67,12.88C42.67,240,56.94,250,58.41,263.59a9.3,9.3,0,0,1,.9.43,25,25,0,0,1,11.44,13.51c4.85,13.29-3,29.76-17.38,32.68l-.16,0a15.83,15.83,0,0,1,5,4.41c5.22,7.09,3.75,19.8-5.09,23.44C43,342.24,33.59,330.5,40.76,322c.35-.41,1.48-.2,1.1.43a10.43,10.43,0,0,0-.3,11c3.37,5.33,10.8,5,14.53.22a15.3,15.3,0,0,0,.7-17c-8.26-13.46-26.07-5.24-33.78,4-7.85,9.37-12.37,20.9-15.35,32.61-.58,2.28-1.07,4.56-1.53,6.85,4.91-7.43,12.46-14.19,20.76-15.31,8.53-1.15,17.94,4.51,15.91,14.1-.14.64-1.23.69-1.68.51-2.23-.92-3.71-2.44-5.61-3.89-4-3.07-8.76-3.52-13.55-1.88-7.52,2.56-15,12.71-17.38,14.82-.14.74-.27,1.48-.4,2.22-.36,2-.82,3.74-2.37,4.65a66.43,66.43,0,0,0,4,12.34c1.86,3.83,4.1,7.32,4.48,11.67.54,6.11-2,13.39-5.78,18.75a40.22,40.22,0,0,1,6.35-2.81,31.74,31.74,0,0,1,8.72-2.34c1.42-.11,5.22.2,5.19.62-.31,4-4.57,8.46-7.7,10.73C13.49,426.8,6,428.62,4,428.68a13.48,13.48,0,0,1,5.26,5.08c3.38,5.64,2.78,13.46.45,19.32-.37.91-2.52.67-2.14-.38,2.82-7.62,1.4-23.7-8.18-23.35-.3,0-.69-1.28-.34-1.36a8.67,8.67,0,0,1,3.68.23h0c0-1.34.41-2.43,0-3.78a5.14,5.14,0,0,0-1.41-2.31,4,4,0,0,0-1.49-.72s.14-.08.13-.13.5-.76,1-1.88c1.44-3,3.51-5.64,4.86-8.67,2-4.54,3.12-9.72,1.74-14.61-2-7.2-7.11-12.72-7.7-20.41-.06-.38-.11-.84-.11-.95,0-.39.37-.31.76-.5,2.13-1.05,1.88-6,2-7.65.27-3.11.79-6.17,1.34-9.24a91.74,91.74,0,0,1,5.5-19.08,26.15,26.15,0,0,0-2.16-1.72c-2.25-1.63-4.81-3.37-7.66-3.43-.47,0-.16-1.43.11-1.46,3.26-.34,8.06,2.4,10.5,4.74.84-1.92,1.77-3.86,2.78-5.78a39.12,39.12,0,0,0-5.29-4,15.7,15.7,0,0,0-8.45-2.78c-.26,0-.27-1.43.05-1.49a5.66,5.66,0,0,1,2,.1C2.18,314.86,3.42,307.62,4,300c.37-4.82,2.76-25.31-4.11-25.27-1,0-1-.67-.73-.95a2.46,2.46,0,0,1,1.09-.13c7.44.5,6.21,12.68,6.17,17.85a136.72,136.72,0,0,1-.86,13.84c1.2-3.86,2.56-7.62,3.81-11.09S13,280.48,18.6,281.31c6.61,1,1.47,17-3.61,29.62,1.32-1.68,2.67-3.27,3.91-4.73,3.38-4,10-13.16,16.19-11.89,6,1.24,1.68,7.34-.79,9.76a89.12,89.12,0,0,0-10.14,11.22c-.15.22-.29.44-.44.65a33.12,33.12,0,0,1,8.35-5.86,25.35,25.35,0,0,1,12.81-2.33c1.49-4.4,1.88-8.83-.48-13.1a13.7,13.7,0,0,0-14.61-7,.93.93,0,0,1-.68-.14,1,1,0,0,1-.77-.71c-.57-3.66-1.25-7.28-4.34-9.69-4-3.11-8.81-2.25-12.43.91a.89.89,0,0,1-.7.1.9.9,0,0,1-.5-.37,8.36,8.36,0,0,1-.91-2.6,10.64,10.64,0,0,0-2.3-4.24A9.18,9.18,0,0,0-1.37,268C-1.82,268.05-1.85,266.21-1.4,266.11Zm13.7-24.34c-2.33-2.61-5.43-5.3-8-8.29.08.19.15.39.24.58,1.29,3.08,2.69,6.18,3.14,9.53.86,6.33-1.7,11.91-5.34,16.89,4.08.36,9.12,3.34,10.65,7C19.5,259.4,19.32,249.65,12.3,241.77ZM37.15,256.2c-1.87-4.38-7.13-5.69-11.55-3.51a13.38,13.38,0,0,0-5.37,5.12c0,.12,0,.23-.06.35C24.77,254.6,31.57,254.23,37.15,256.2ZM49,269.47c1.91,4.69,6.78-.09,6.86-3.05,0-.42,0-.86,0-1.3C52.79,264.26,47.47,265.68,49,269.47ZM3.87,423a6.58,6.58,0,0,1,.79,4.32c3.84-1.34,7.76-2.35,11-4.91a26.73,26.73,0,0,0,6.93-7.79,41.4,41.4,0,0,0-20,6.77A7.53,7.53,0,0,1,3.87,423Zm17.18-71.31a18.17,18.17,0,0,1,10.65-.37c3.64,1.08,5.87,4.15,9,5.86a10.12,10.12,0,0,0-7.31-10.46c-5.24-1.68-10.57.39-14.84,3.45-4.74,3.4-8.15,7.59-11.37,12.1C10.78,357.57,15.58,353.49,21.05,351.73Zm-4.26-68c-1.35.38-3,5.3-3.55,6.6-1.37,3.38-2.59,6.83-3.71,10.3-2.32,7.22-3.65,15.2-6.2,22.25A21.16,21.16,0,0,1,7,324.43c2.49-6.68,5.59-13.27,7.88-20C15.62,302.25,22.56,282.1,16.79,283.75Zm11.77,22.59c1.84-1.87,5.41-4.09,6.25-6.63,1.11-3.4-1.78-3.85-4.32-2.21-5.28,3.4-9.18,8.86-11.63,11.89a75.67,75.67,0,0,0-9.7,16,18.08,18.08,0,0,1,4.74,3.46c.07-.12,5.08-10.82,8.33-15.19A68.23,68.23,0,0,1,28.56,306.34Zm23.34,3.18v0h0A.05.05,0,0,1,51.9,309.52Z"/><path class="cls-2" d="M1.63,267.87c-3.14-.2-6.49.48-8.79,3a10.64,10.64,0,0,0-2.3,4.24,8.65,8.65,0,0,1-.9,2.6,1,1,0,0,1-.51.37.89.89,0,0,1-.7-.1c-3.62-3.16-8.45-4-12.43-.91-3.09,2.41-3.77,6-4.34,9.69a1,1,0,0,1-.77.71.93.93,0,0,1-.68.14,13.7,13.7,0,0,0-14.61,7c-2.36,4.27-2,8.7-.48,13.1a25.35,25.35,0,0,1,12.81,2.33,33.12,33.12,0,0,1,8.35,5.86c-.15-.21-.29-.43-.44-.65A89.12,89.12,0,0,0-34.3,304.07c-2.47-2.42-6.8-8.52-.79-9.76,6.18-1.27,12.81,7.9,16.19,11.89,1.24,1.46,2.59,3.05,3.91,4.73-5.08-12.61-10.22-28.64-3.61-29.62,5.57-.83,8,9.45,9.23,12.95s2.61,7.23,3.81,11.09a136.72,136.72,0,0,1-.86-13.84c0-5.17-1.27-17.35,6.17-17.85.79-.05,1,.92.19,1C-6.85,275.76-4.37,295.19-4,300c.58,7.61,1.82,14.85,2.71,22.42a4.25,4.25,0,0,1,2-.09c.31.08.71,1.63.45,1.61-4.18-.24-7.18,1.66-9.08,2.8a31.61,31.61,0,0,0-5,3.88c1,1.92,1.94,3.86,2.78,5.78,2.44-2.34,7.36-5.06,10.92-4.74.27,0,.45,1.61,0,1.58-3.46-.21-5.7,1.68-7.95,3.31a26.15,26.15,0,0,0-2.16,1.72,91.74,91.74,0,0,1,5.5,19.08c.55,3.07,1.07,6.13,1.34,9.24.15,1.63-.28,6.63,1.85,7.68a1.45,1.45,0,0,0,1.48-.13,9.32,9.32,0,0,0-.9,1.49c-.59,7.69-5.43,13.27-7.45,20.47-1.38,4.89-.28,10.07,1.74,14.61,1.35,3,3.42,5.71,4.86,8.67a7.31,7.31,0,0,0,1.12,1.76s.13.06.12.11.13.31.09.33a2,2,0,0,0-1.65.53,5,5,0,0,0-1.41,2.31c-.42,1.35-.06,2.44,0,3.78h0A10.93,10.93,0,0,1,1.82,428c.34.13-.8,1.33-1.1,1.36-11.76,1.22-11.08,15.68-8.26,23.3.38,1.05-1.77,1.29-2.13.38-2.34-5.86-2.94-13.68.44-19.32A13.48,13.48,0,0,1-4,428.68c-2.07,0-9.52-1.88-13.13-4.5-3.13-2.27-7.39-6.71-7.7-10.73,0-.42,3.77-.73,5.19-.62a31.74,31.74,0,0,1,8.72,2.34A40.22,40.22,0,0,1-4.54,418c-3.82-5.36-6.32-12.64-5.78-18.75.38-4.35,2.62-7.84,4.48-11.67a66.43,66.43,0,0,0,4-12.34c-1.55-.91-2-2.64-2.37-4.65-.13-.74-.26-1.48-.4-2.22-2.33-2.11-9.86-12.26-17.38-14.82-4.79-1.64-9.5-1.19-13.55,1.88-1.9,1.45-3.38,3-5.61,3.89-.45.18-1.54.13-1.68-.51-2-9.59,7.38-15.25,15.91-14.1,8.3,1.12,15.85,7.88,20.76,15.31-.46-2.29-1-4.57-1.53-6.85-3-11.71-7.5-23.24-15.35-32.61-7.71-9.21-25.52-17.43-33.78-4a15.3,15.3,0,0,0,.7,17c3.73,4.77,11.16,5.11,14.53-.22a10.43,10.43,0,0,0-.3-11c-.38-.63.75-.84,1.1-.43,7.17,8.55-2.28,20.29-12.37,16.13-8.84-3.64-10.31-16.35-5.09-23.44a15.83,15.83,0,0,1,5-4.41l-.16,0c-14.36-2.92-22.23-19.39-17.38-32.68A25,25,0,0,1-59.31,264a9.3,9.3,0,0,1,.9-.43C-56.94,250-42.67,240-32.47,232.83c5.94-4.18,12-8.29,17.67-12.88a46.06,46.06,0,0,0,8.06-8.27A115.69,115.69,0,0,0,0,200.33c.16-.28.43.59.35,1.09-1.44,9.94-10.63,17.46-18.19,23.13-10.61,8-22.68,14.92-31.22,25.24-2.57,3.11-4.93,6.54-6,10.49-.2.73-.36,1.53-.5,2.33,3.19-.75,6.6-.37,8.56,2.64,5.12,7.87-10.93,12.41-11.52,1.84,0-.21,0-.41,0-.62a23.76,23.76,0,0,0-2.39,1.76,24,24,0,0,0-6.44,8.57c-6.18,13.7,2.18,26.57,14.93,31.89l.1.05a22.2,22.2,0,0,1,2.67-23.43c3.29-4.22,10.73-8.29,16.32-6.18A14,14,0,0,1-15.92,267.3a17.8,17.8,0,0,1-2.56-3.87c-2-1.91-3.67-4.14-6.26-5.36a13.85,13.85,0,0,0-13.36.72c-.57.33-2.39.39-2.26-.69.75-5.81,6.07-9.06,11.7-8.32a13.31,13.31,0,0,1,8.22,4.64A18.46,18.46,0,0,1-19,247.68c2-4.66,5.87-8,9.35-11.54,4.25-4.29,7.18-9.6,9.6-15.45.17-.43.48,1.22.52,1.68a9.8,9.8,0,0,1-.39,2.82c0,4.72-3.51,9.64-4.89,13.91C-7.37,247-5,254.1,0,260.4c.11.13.36.38.37.49.22.12.29.58,0,.58a15.23,15.23,0,0,0-7.67,2.13c-2.36,1.58-3.29,3.54-4.69,5.86a1.08,1.08,0,0,1-1.12.3h0c-8.93-3.25-16.82,1.05-18.77,10.3a.38.38,0,0,1-.16.23.53.53,0,0,1-.34.14,1.41,1.41,0,0,1-.41,0c-7-.56-12.7,2.15-16.27,8.36-3.9,6.81-3.41,13.05-.92,20a21.33,21.33,0,0,1,3-.76,16,16,0,0,1,3.24-17.48c3.27-3.36,8.63-5.87,13.28-4.42.33-5.12,2.76-10.11,7.83-12a11.09,11.09,0,0,1,10.6,1.71c.14-2.43,2.53-5.59,3.88-6.73,2.3-1.95,7.07-3.88,10.07-2.89C2.27,266.39,2.08,267.9,1.63,267.87ZM-13,267.52c1.53-3.7,6.57-6.68,10.65-7-3.64-5-6.2-10.56-5.34-16.89.45-3.35,1.85-6.45,3.15-9.53.08-.19.15-.39.23-.58-2.54,3-5.64,5.68-8,8.29C-19.32,249.65-19.5,259.4-13,267.52Zm-7.15-9.36c0-.12,0-.23-.06-.35a13.38,13.38,0,0,0-5.37-5.12c-4.42-2.18-9.68-.87-11.55,3.51C-31.57,254.23-24.77,254.6-20.17,258.16Zm-35.67,7c0,.44,0,.88,0,1.3.08,3,5,7.58,6.86,3.05C-47.43,265.69-52.79,264.26-55.84,265.12ZM-2.66,421.43a41.4,41.4,0,0,0-20-6.77,26.73,26.73,0,0,0,6.93,7.79c3.28,2.56,7.2,3.57,11,4.91A6.58,6.58,0,0,1-3.87,423,7.53,7.53,0,0,1-2.66,421.43Zm-4.55-59.12c-3.22-4.51-6.63-8.7-11.37-12.1-4.27-3.06-9.6-5.13-14.84-3.45a10.12,10.12,0,0,0-7.31,10.46c3.16-1.71,5.39-4.78,9-5.86a18.17,18.17,0,0,1,10.65.37C-15.58,353.49-10.78,357.57-7.21,362.31Zm-7.68-57.91c2.29,6.76,5.39,13.35,7.88,20A22.54,22.54,0,0,1-3.22,323c-2.94-7-4-15.09-6.31-22.31-1.12-3.47-2.34-6.92-3.71-10.3-.52-1.3-2.2-6.22-3.55-6.6C-22.56,282.1-15.62,302.25-14.89,304.4Zm-7.34,9.3c3.25,4.37,8.26,15.07,8.33,15.19a18.08,18.08,0,0,1,4.74-3.46,75.67,75.67,0,0,0-9.7-16c-2.45-3-6.34-8.49-11.63-11.89-2.54-1.64-5.43-1.19-4.32,2.21.84,2.54,4.41,4.76,6.25,6.63A68.23,68.23,0,0,1-22.23,313.7Zm-29.69-4.14h0v0A.05.05,0,0,1-51.92,309.56Z"/><path class="cls-2" d="M148.1,28.11c3.3-.71,7.33,1.08,9.63,3,1.35,1.14,3.74,4.3,3.88,6.73a11.09,11.09,0,0,1,10.6-1.71c5.07,1.87,7.5,6.86,7.83,12,4.65-1.45,10,1.06,13.28,4.42A16,16,0,0,1,196.56,70a21.33,21.33,0,0,1,3,.76c2.49-7,3-13.21-.92-20-3.57-6.21-9.29-8.92-16.27-8.36a1.41,1.41,0,0,1-.41,0,.53.53,0,0,1-.34-.14.38.38,0,0,1-.16-.23c-1.95-9.25-9.84-13.55-18.77-10.3h0a1.08,1.08,0,0,1-1.12-.3c-1.4-2.32-2.33-4.28-4.69-5.86A14.62,14.62,0,0,0,149,23.44c-.33,0,.27-.71.49-.82a.63.63,0,0,1,.16-.36c5-6.3,7.2-13.3,4.65-21.16-1.38-4.27-4.86-9.19-4.89-13.91a16.56,16.56,0,0,1-.14-3.09,4.55,4.55,0,0,1,.13-1.31c.07-.17.18-.13.25.06a42.16,42.16,0,0,0,9.49,15.29c3.48,3.52,7.38,6.88,9.35,11.54a18.46,18.46,0,0,1,1.43,6.74,13.31,13.31,0,0,1,8.22-4.64c5.63-.74,11,2.51,11.7,8.32.13,1.08-1.69,1-2.26.69a13.85,13.85,0,0,0-13.36-.72c-2.59,1.22-4.24,3.45-6.26,5.36a17.8,17.8,0,0,1-2.56,3.87,14,14,0,0,1,17.42,11.83c5.59-2.11,13,2,16.32,6.18a22.2,22.2,0,0,1,2.67,23.43.31.31,0,0,1,.1,0C214.68,65.37,223,52.5,216.86,38.8A23.63,23.63,0,0,0,208,28.47c0,.21,0,.41,0,.62-.6,10.57-16.65,6-11.53-1.84,2-3,5.37-3.39,8.56-2.64-.14-.8-.3-1.6-.5-2.33-1.06-4-3.42-7.38-6-10.49C190,1.47,178-5.49,167.34-13.45c-7.56-5.67-16.64-13.43-18.09-23.37-.07-.49.38-1.24.54-1,2,3.59,4,8.11,6.45,11.45A46.06,46.06,0,0,0,164.3-18C169.94-13.46,176-9.35,182-5.17,192.17,2,206.44,12,207.91,25.59a9.3,9.3,0,0,1,.9.43,25,25,0,0,1,11.44,13.51c4.85,13.29-3,29.76-17.38,32.68l-.16,0a15.83,15.83,0,0,1,5,4.41c5.22,7.09,3.75,19.8-5.09,23.44-10.09,4.16-19.54-7.58-12.37-16.13.35-.41,1.48-.2,1.1.43a10.43,10.43,0,0,0-.3,11c3.37,5.33,10.8,5,14.53.22a15.3,15.3,0,0,0,.7-17c-8.26-13.46-26.07-5.24-33.78,4-7.85,9.37-12.37,20.9-15.35,32.61-.58,2.28-1.07,4.56-1.53,6.85,4.91-7.43,12.46-14.19,20.76-15.31,8.53-1.15,17.94,4.51,15.91,14.1-.14.64-1.23.69-1.68.51-2.23-.92-3.71-2.44-5.61-3.89-4-3.07-8.76-3.52-13.55-1.88-7.52,2.56-15.05,12.71-17.38,14.82-.14.74-.27,1.48-.4,2.22-.36,2-.82,3.74-2.37,4.65a66.43,66.43,0,0,0,4,12.34c1.86,3.83,4.1,7.32,4.48,11.67.54,6.11-2,13.39-5.78,18.75a40.22,40.22,0,0,1,6.35-2.81,31.74,31.74,0,0,1,8.72-2.34c1.42-.11,5.22.2,5.19.62-.31,4-4.57,8.46-7.7,10.73-3.61,2.62-11.14,4.44-13.13,4.5a13.48,13.48,0,0,1,5.26,5.08c3.38,5.64,2.78,13.46.44,19.32-.36.91-2.51.67-2.13-.38,2.82-7.62,1.4-23.7-8.18-23.35-.3,0-.69-1.28-.34-1.36a8.67,8.67,0,0,1,3.68.23h0c.05-1.34.41-2.43,0-3.78a5.14,5.14,0,0,0-1.41-2.31,4,4,0,0,0-1.49-.72c0-.05.14-.08.13-.13s.5-.76,1-1.88c1.44-3,3.51-5.64,4.86-8.67,2-4.54,3.12-9.72,1.74-14.61-2-7.2-7.11-12.72-7.7-20.41-.06-.38-.11-.84-.11-.95,0-.39.37-.31.76-.5,2.13-1.05,1.88-6,2-7.65.27-3.11.79-6.17,1.34-9.24a91.74,91.74,0,0,1,5.5-19.08,26.15,26.15,0,0,0-2.16-1.72c-2.25-1.63-4.81-3.37-7.66-3.43-.47,0-.16-1.43.11-1.46,3.26-.34,8.06,2.4,10.5,4.74.84-1.92,1.77-3.86,2.78-5.78a39.12,39.12,0,0,0-5.29-4,15.7,15.7,0,0,0-8.45-2.78c-.26,0-.27-1.43,0-1.49a5.66,5.66,0,0,1,2,.1c.89-7.57,2.13-14.81,2.71-22.42.37-4.82,2.76-25.31-4.11-25.27-1,0-1-.67-.73-1a2.46,2.46,0,0,1,1.09-.13c7.44.5,6.21,12.68,6.17,17.85a136.72,136.72,0,0,1-.86,13.84c1.2-3.86,2.56-7.62,3.81-11.09s3.66-13.78,9.23-12.95c6.61,1,1.47,17-3.61,29.62,1.32-1.68,2.67-3.27,3.91-4.73,3.38-4,10-13.16,16.19-11.89,6,1.24,1.68,7.34-.79,9.76a89.12,89.12,0,0,0-10.14,11.22c-.15.22-.29.44-.44.65a33.12,33.12,0,0,1,8.35-5.86,25.35,25.35,0,0,1,12.81-2.33c1.49-4.4,1.88-8.83-.48-13.1a13.7,13.7,0,0,0-14.61-7,.93.93,0,0,1-.68-.14,1,1,0,0,1-.77-.71c-.57-3.66-1.25-7.28-4.34-9.69-4-3.11-8.81-2.25-12.43.91a.89.89,0,0,1-.7.1,1,1,0,0,1-.51-.37,8.65,8.65,0,0,1-.9-2.6,10.64,10.64,0,0,0-2.3-4.24,9.18,9.18,0,0,0-8.53-2.9C147.68,30.05,147.65,28.21,148.1,28.11ZM161.8,3.77c-2.33-2.61-5.43-5.3-8-8.29.08.19.15.39.23.58,1.3,3.08,2.7,6.18,3.15,9.53.86,6.33-1.7,11.91-5.34,16.89,4.08.36,9.12,3.34,10.65,7C169,21.4,168.82,11.65,161.8,3.77ZM186.65,18.2c-1.87-4.38-7.13-5.69-11.55-3.51a13.38,13.38,0,0,0-5.37,5.12c0,.12,0,.23-.06.35C174.27,16.6,181.07,16.23,186.65,18.2Zm11.86,13.27c1.91,4.69,6.78-.09,6.86-3,0-.42,0-.86,0-1.3C202.29,26.26,197,27.68,198.51,31.47ZM153.37,185a6.58,6.58,0,0,1,.79,4.32c3.84-1.34,7.76-2.35,11-4.91a26.73,26.73,0,0,0,6.93-7.79,41.4,41.4,0,0,0-20,6.77A7.53,7.53,0,0,1,153.37,185Zm17.18-71.31a18.17,18.17,0,0,1,10.65-.37c3.64,1.08,5.87,4.15,9,5.86a10.12,10.12,0,0,0-7.31-10.46c-5.24-1.68-10.57.39-14.84,3.45-4.74,3.4-8.15,7.59-11.37,12.1C160.28,119.57,165.08,115.49,170.55,113.73Zm-4.26-68c-1.35.38-3,5.3-3.55,6.6-1.37,3.38-2.59,6.83-3.71,10.3-2.32,7.22-3.66,15.2-6.2,22.25a21.16,21.16,0,0,1,3.68,1.53c2.49-6.68,5.59-13.27,7.88-20C165.12,64.25,172.06,44.1,166.29,45.75Zm11.77,22.59c1.84-1.87,5.41-4.09,6.25-6.63,1.11-3.4-1.78-3.85-4.32-2.21-5.29,3.4-9.18,8.86-11.63,11.89a75.67,75.67,0,0,0-9.7,16,18.08,18.08,0,0,1,4.74,3.46c.07-.12,5.08-10.82,8.33-15.19A68.23,68.23,0,0,1,178.06,68.34Zm23.34,3.18v0h0A.05.05,0,0,1,201.4,71.52Z"/><path class="cls-2" d="M149.5,151.37c6,4.74,4.19,19,0,24.92-.22.31-.06-1.21.08-1.63,1.42-4.33,2.55-8.18,2.67-12.28s-1.33-6.7-2.89-10.17C149.26,152,149.36,151.26,149.5,151.37Z"/><path class="cls-2" d="M75.39,130c.91-4,.65-8.32.63-12.38,0-3.56.27-7.29-.68-10.74-.13-.47-1-.41-1.13.06-.64,3.7,0,7.73,0,11.49s-.43,7.76.07,11.52a.61.61,0,0,0,1.15,0Z"/><path class="cls-2" d="M151.13,29.87c-3.14-.2-6.49.48-8.79,3a10.64,10.64,0,0,0-2.3,4.24,8.36,8.36,0,0,1-.91,2.6.9.9,0,0,1-.5.37.89.89,0,0,1-.7-.1c-3.62-3.16-8.45-4-12.43-.91-3.09,2.41-3.77,6-4.34,9.69a1,1,0,0,1-.77.71.93.93,0,0,1-.68.14,13.7,13.7,0,0,0-14.61,7c-2.36,4.27-2,8.7-.48,13.1a25.35,25.35,0,0,1,12.81,2.33,33.12,33.12,0,0,1,8.35,5.86c-.15-.21-.29-.43-.44-.65A89.12,89.12,0,0,0,115.2,66.07c-2.47-2.42-6.8-8.52-.79-9.76,6.18-1.27,12.81,7.9,16.19,11.89,1.24,1.46,2.59,3,3.91,4.73-5.08-12.61-10.22-28.64-3.61-29.62,5.57-.83,8,9.45,9.23,12.95s2.61,7.23,3.81,11.09a136.72,136.72,0,0,1-.86-13.84c0-5.17-1.27-17.35,6.17-17.85.79,0,1,.92.19,1.05-6.79,1-4.31,20.48-3.94,25.3.58,7.61,1.82,14.85,2.71,22.42a4.25,4.25,0,0,1,2-.09c.31.08.71,1.63.45,1.61-4.18-.24-7.18,1.66-9.08,2.8a31.61,31.61,0,0,0-5,3.88c1,1.92,1.94,3.86,2.78,5.78,2.44-2.34,7.36-5.06,10.92-4.74.27,0,.45,1.61,0,1.58-3.46-.21-5.7,1.68-7.95,3.31a26.15,26.15,0,0,0-2.16,1.72,91.74,91.74,0,0,1,5.5,19.08c.55,3.07,1.07,6.13,1.34,9.24.15,1.63-.28,6.63,1.85,7.68a1.45,1.45,0,0,0,1.48-.13,9.32,9.32,0,0,0-.9,1.49c-.59,7.69-5.43,13.27-7.45,20.47-1.38,4.89-.28,10.07,1.74,14.61,1.35,3,3.42,5.71,4.86,8.67a7.31,7.31,0,0,0,1.12,1.76s.13.06.12.11.13.31.09.33a2,2,0,0,0-1.65.53,5,5,0,0,0-1.41,2.31c-.42,1.35-.06,2.44,0,3.78h0a10.93,10.93,0,0,1,4.52-.18c.34.13-.8,1.33-1.1,1.36-11.76,1.22-11.08,15.68-8.26,23.3.38,1.05-1.77,1.29-2.13.38-2.34-5.86-2.94-13.68.44-19.32a13.48,13.48,0,0,1,5.26-5.08c-2.07,0-9.52-1.88-13.13-4.5-3.13-2.27-7.39-6.71-7.7-10.73,0-.42,3.77-.73,5.19-.62a31.74,31.74,0,0,1,8.72,2.34A40.22,40.22,0,0,1,145,180c-3.82-5.36-6.32-12.64-5.78-18.75.38-4.35,2.62-7.84,4.48-11.67a66.43,66.43,0,0,0,4-12.34c-1.55-.91-2-2.64-2.37-4.65-.13-.74-.26-1.48-.4-2.22-2.33-2.11-9.86-12.26-17.38-14.82-4.79-1.64-9.5-1.19-13.55,1.88-1.9,1.45-3.38,3-5.61,3.89-.45.18-1.54.13-1.68-.51-2-9.59,7.38-15.25,15.91-14.1,8.3,1.12,15.85,7.88,20.76,15.31-.46-2.29-1-4.57-1.53-6.85-3-11.71-7.5-23.24-15.35-32.61-7.71-9.21-25.52-17.43-33.78-4a15.3,15.3,0,0,0,.7,17c3.73,4.77,11.16,5.11,14.53-.22a10.43,10.43,0,0,0-.3-11c-.38-.63.75-.84,1.1-.43,7.17,8.55-2.28,20.29-12.37,16.13-8.84-3.64-10.31-16.35-5.09-23.44a15.83,15.83,0,0,1,5-4.41l-.16,0C81.77,69.29,73.9,52.82,78.75,39.53A25,25,0,0,1,90.19,26c.29-.16.59-.3.89-.43C92.56,12,106.83,2,117-5.17c5.94-4.18,12-8.29,17.67-12.88a46.06,46.06,0,0,0,8.06-8.27,115.69,115.69,0,0,0,6.74-11.35c.16-.28.43.59.35,1.09-1.44,9.94-10.63,17.46-18.19,23.13-10.61,8-22.68,14.92-31.22,25.24-2.57,3.11-4.93,6.54-6,10.49-.2.73-.36,1.53-.5,2.33,3.19-.75,6.6-.37,8.56,2.64,5.12,7.87-10.93,12.41-11.53,1.84,0-.21,0-.41,0-.62A23.63,23.63,0,0,0,82.14,38.8C76,52.5,84.32,65.37,97.07,70.69l.1,0a22.2,22.2,0,0,1,2.67-23.43c3.29-4.22,10.73-8.29,16.32-6.18A14,14,0,0,1,133.58,29.3,17.8,17.8,0,0,1,131,25.43c-2-1.91-3.67-4.14-6.26-5.36a13.85,13.85,0,0,0-13.36.72c-.57.33-2.4.39-2.26-.69.75-5.81,6.07-9.06,11.7-8.32a13.31,13.31,0,0,1,8.22,4.64,18.46,18.46,0,0,1,1.43-6.74c2-4.66,5.87-8,9.35-11.54,4.25-4.29,7.18-9.6,9.6-15.45.17-.43.48,1.22.52,1.69a9.78,9.78,0,0,1-.39,2.81c0,4.72-3.51,9.64-4.89,13.91-2.55,7.86-.17,15,4.83,21.3.11.13.36.38.37.49.22.12.29.58,0,.58a15.23,15.23,0,0,0-7.67,2.13c-2.36,1.58-3.29,3.54-4.69,5.86a1.08,1.08,0,0,1-1.12.3h0c-8.93-3.25-16.82,1.05-18.77,10.3a.38.38,0,0,1-.16.23.53.53,0,0,1-.34.14,1.41,1.41,0,0,1-.41,0c-7-.56-12.7,2.15-16.27,8.36-3.9,6.81-3.41,13-.92,20a21.33,21.33,0,0,1,3-.76,16,16,0,0,1,3.24-17.48c3.27-3.36,8.63-5.87,13.28-4.42.33-5.12,2.76-10.11,7.83-12a11.09,11.09,0,0,1,10.6,1.71c.14-2.43,2.53-5.59,3.88-6.73,2.3-1.95,7.07-3.88,10.07-2.89C151.77,28.39,151.58,29.9,151.13,29.87Zm-14.65-.35c1.53-3.7,6.57-6.68,10.65-7-3.64-5-6.2-10.56-5.34-16.89.45-3.35,1.85-6.45,3.14-9.53.09-.19.16-.39.24-.58-2.54,3-5.64,5.68-8,8.29C130.18,11.65,130,21.4,136.48,29.52Zm-7.15-9.36c0-.12-.05-.23-.06-.35a13.38,13.38,0,0,0-5.37-5.12c-4.42-2.18-9.68-.87-11.55,3.51C117.93,16.23,124.73,16.6,129.33,20.16Zm-35.67,7c0,.44,0,.88,0,1.3.08,3,5,7.58,6.86,3C102.07,27.69,96.71,26.26,93.66,27.12Zm53.18,156.31a41.4,41.4,0,0,0-20-6.77,26.73,26.73,0,0,0,6.93,7.79c3.28,2.56,7.2,3.57,11,4.91a6.58,6.58,0,0,1,.79-4.32A7.53,7.53,0,0,1,146.84,183.43Zm-4.55-59.12c-3.22-4.51-6.63-8.7-11.37-12.1-4.27-3.06-9.6-5.13-14.84-3.45a10.12,10.12,0,0,0-7.31,10.46c3.16-1.71,5.39-4.78,9-5.86a18.17,18.17,0,0,1,10.65.37C133.92,115.49,138.72,119.57,142.29,124.31ZM134.61,66.4c2.29,6.76,5.39,13.35,7.88,20A22.54,22.54,0,0,1,146.28,85c-2.94-7-4-15.09-6.31-22.31-1.12-3.47-2.34-6.92-3.71-10.3-.52-1.3-2.2-6.22-3.55-6.6C126.94,44.1,133.88,64.25,134.61,66.4Zm-7.34,9.3c3.25,4.37,8.26,15.07,8.33,15.19a18.08,18.08,0,0,1,4.74-3.46,75.67,75.67,0,0,0-9.7-16c-2.45-3-6.35-8.49-11.63-11.89-2.54-1.64-5.43-1.19-4.32,2.21.84,2.54,4.41,4.76,6.25,6.63A68.23,68.23,0,0,1,127.27,75.7ZM97.58,71.56h0v0A.05.05,0,0,1,97.58,71.56Z"/><path class="cls-2" d="M127.7,141a4.33,4.33,0,0,1,4-4.76c1.93-.25,4.6,1,5.31,2.52a4.4,4.4,0,0,1-3,5.92C131.32,145.31,128.09,143.87,127.7,141Zm2.46.05c.36,1.28,1.78,2.47,3.15,1.79a2.82,2.82,0,0,0,1.16-3.45,2.55,2.55,0,0,0-3.56-1.36C129.91,138.47,129.9,140.09,130.16,141Z"/><path class="cls-2" d="M149.46,151.37c-6,4.74-4.18,18.49,0,24.93.2.32.09-1.22,0-1.64-1.42-4.33-2.55-8.18-2.67-12.28s1.33-6.7,2.89-10.17C149.74,152,149.6,151.26,149.46,151.37Z"/><path class="cls-2" d="M-1.4,28.11c3.3-.71,7.33,1.08,9.63,3,1.35,1.14,3.74,4.3,3.88,6.73a11.09,11.09,0,0,1,10.6-1.71c5.07,1.87,7.5,6.86,7.83,12,4.65-1.45,10,1.06,13.28,4.42A16,16,0,0,1,47.06,70a21.33,21.33,0,0,1,3,.76c2.49-7,3-13.21-.92-20-3.57-6.21-9.29-8.92-16.27-8.36a1.41,1.41,0,0,1-.41,0,.53.53,0,0,1-.34-.14.38.38,0,0,1-.16-.23c-2-9.25-9.84-13.55-18.77-10.3h0a1.08,1.08,0,0,1-1.12-.3c-1.4-2.32-2.33-4.28-4.69-5.86A14.62,14.62,0,0,0-.48,23.44c-.33,0,.27-.71.49-.82a.63.63,0,0,1,.16-.36C5.17,16,7.37,9,4.82,1.1,3.44-3.17,0-8.09-.07-12.81A16.56,16.56,0,0,1-.21-15.9a4.55,4.55,0,0,1,.13-1.31c.07-.17.18-.13.25.06A42.16,42.16,0,0,0,9.66-1.86C13.14,1.66,17,5,19,9.68a18.46,18.46,0,0,1,1.43,6.74,13.31,13.31,0,0,1,8.22-4.64c5.63-.74,11,2.51,11.7,8.32.13,1.08-1.69,1-2.26.69a13.85,13.85,0,0,0-13.36-.72c-2.59,1.22-4.24,3.45-6.26,5.36a17.8,17.8,0,0,1-2.56,3.87A14,14,0,0,1,33.34,41.13c5.59-2.11,13,2,16.32,6.18a22.2,22.2,0,0,1,2.67,23.43l.1,0C65.18,65.37,73.54,52.5,67.36,38.8a23.63,23.63,0,0,0-8.83-10.33c0,.21,0,.41,0,.62-.6,10.57-16.65,6-11.53-1.84,2-3,5.37-3.39,8.56-2.64-.14-.8-.3-1.6-.5-2.33-1.06-4-3.42-7.38-6-10.49C40.52,1.47,28.45-5.49,17.84-13.45,10.28-19.12,1.2-26.88-.25-36.82c-.07-.49.38-1.24.54-1,2,3.59,4,8.11,6.45,11.45A46.06,46.06,0,0,0,14.8-18c5.64,4.59,11.73,8.7,17.67,12.88C42.67,2,56.94,12,58.41,25.59a9.3,9.3,0,0,1,.9.43A25,25,0,0,1,70.75,39.53c4.85,13.29-3,29.76-17.38,32.68l-.16,0a15.83,15.83,0,0,1,5,4.41c5.22,7.09,3.75,19.8-5.09,23.44C43,104.24,33.59,92.5,40.76,84c.35-.41,1.48-.2,1.1.43a10.43,10.43,0,0,0-.3,11c3.37,5.33,10.8,5,14.53.22a15.3,15.3,0,0,0,.7-17c-8.26-13.46-26.07-5.24-33.78,4-7.85,9.37-12.37,20.9-15.35,32.61-.58,2.28-1.07,4.56-1.53,6.85,4.91-7.43,12.46-14.19,20.76-15.31,8.53-1.15,17.94,4.51,15.91,14.1-.14.64-1.23.69-1.68.51-2.23-.92-3.71-2.44-5.61-3.89-4-3.07-8.76-3.52-13.55-1.88-7.52,2.56-15,12.71-17.38,14.82-.14.74-.27,1.48-.4,2.22-.36,2-.82,3.74-2.37,4.65a66.43,66.43,0,0,0,4,12.34c1.86,3.83,4.1,7.32,4.48,11.67.54,6.11-2,13.39-5.78,18.75a40.22,40.22,0,0,1,6.35-2.81,31.74,31.74,0,0,1,8.72-2.34c1.42-.11,5.22.2,5.19.62-.31,4-4.57,8.46-7.7,10.73C13.49,188.8,6,190.62,4,190.68a13.48,13.48,0,0,1,5.26,5.08c3.38,5.64,2.78,13.46.45,19.32-.37.91-2.52.67-2.14-.38,2.82-7.62,1.4-23.7-8.18-23.35-.3,0-.69-1.28-.34-1.36a8.67,8.67,0,0,1,3.68.23h0c0-1.34.41-2.43,0-3.78a5.14,5.14,0,0,0-1.41-2.31,4,4,0,0,0-1.49-.72c0-.05.14-.08.13-.13s.5-.76,1-1.88c1.44-3,3.51-5.64,4.86-8.67,2-4.54,3.12-9.72,1.74-14.61-2-7.2-7.11-12.72-7.7-20.41-.06-.38-.11-.84-.11-.95,0-.39.37-.31.76-.5,2.13-1.05,1.88-6,2-7.65.27-3.11.79-6.17,1.34-9.24a91.74,91.74,0,0,1,5.5-19.08,26.15,26.15,0,0,0-2.16-1.72C5,96.93,2.41,95.19-.44,95.13c-.47,0-.16-1.43.11-1.46,3.26-.34,8.06,2.4,10.5,4.74.84-1.92,1.77-3.86,2.78-5.78a39.12,39.12,0,0,0-5.29-4A15.7,15.7,0,0,0-.79,85.82c-.26,0-.27-1.43.05-1.49a5.66,5.66,0,0,1,2,.1C2.18,76.86,3.42,69.62,4,62,4.37,57.19,6.76,36.7-.11,36.74c-1,0-1-.67-.73-1a2.46,2.46,0,0,1,1.09-.13c7.44.5,6.21,12.68,6.17,17.85a136.72,136.72,0,0,1-.86,13.84c1.2-3.86,2.56-7.62,3.81-11.09S13,42.48,18.6,43.31c6.61,1,1.47,17-3.61,29.62,1.32-1.68,2.67-3.27,3.91-4.73,3.38-4,10-13.16,16.19-11.89,6,1.24,1.68,7.34-.79,9.76A89.12,89.12,0,0,0,24.16,77.29c-.15.22-.29.44-.44.65a33.12,33.12,0,0,1,8.35-5.86,25.35,25.35,0,0,1,12.81-2.33c1.49-4.4,1.88-8.83-.48-13.1a13.7,13.7,0,0,0-14.61-7,.93.93,0,0,1-.68-.14,1,1,0,0,1-.77-.71c-.57-3.66-1.25-7.28-4.34-9.69C20,36,15.19,36.83,11.57,40a.89.89,0,0,1-.7.1.9.9,0,0,1-.5-.37,8.36,8.36,0,0,1-.91-2.6,10.64,10.64,0,0,0-2.3-4.24A9.18,9.18,0,0,0-1.37,30C-1.82,30.05-1.85,28.21-1.4,28.11ZM12.3,3.77c-2.33-2.61-5.43-5.3-8-8.29.08.19.15.39.24.58C5.86-.86,7.26,2.24,7.71,5.59,8.57,11.92,6,17.5,2.37,22.48c4.08.36,9.12,3.34,10.65,7C19.5,21.4,19.32,11.65,12.3,3.77ZM37.15,18.2C35.28,13.82,30,12.51,25.6,14.69a13.38,13.38,0,0,0-5.37,5.12c0,.12,0,.23-.06.35C24.77,16.6,31.57,16.23,37.15,18.2ZM49,31.47c1.91,4.69,6.78-.09,6.86-3,0-.42,0-.86,0-1.3C52.79,26.26,47.47,27.68,49,31.47ZM3.87,185a6.58,6.58,0,0,1,.79,4.32c3.84-1.34,7.76-2.35,11-4.91a26.73,26.73,0,0,0,6.93-7.79,41.4,41.4,0,0,0-20,6.77A7.53,7.53,0,0,1,3.87,185Zm17.18-71.31a18.17,18.17,0,0,1,10.65-.37c3.64,1.08,5.87,4.15,9,5.86a10.12,10.12,0,0,0-7.31-10.46c-5.24-1.68-10.57.39-14.84,3.45-4.74,3.4-8.15,7.59-11.37,12.1C10.78,119.57,15.58,115.49,21.05,113.73Zm-4.26-68c-1.35.38-3,5.3-3.55,6.6-1.37,3.38-2.59,6.83-3.71,10.3-2.32,7.22-3.65,15.2-6.2,22.25A21.16,21.16,0,0,1,7,86.43c2.49-6.68,5.59-13.27,7.88-20C15.62,64.25,22.56,44.1,16.79,45.75ZM28.56,68.34c1.84-1.87,5.41-4.09,6.25-6.63,1.11-3.4-1.78-3.85-4.32-2.21-5.28,3.4-9.18,8.86-11.63,11.89a75.67,75.67,0,0,0-9.7,16,18.08,18.08,0,0,1,4.74,3.46C14,90.77,19,80.07,22.23,75.7A68.23,68.23,0,0,1,28.56,68.34ZM51.9,71.52v0h0A.05.05,0,0,1,51.9,71.52Z"/><path class="cls-2" d="M15.54,144.65a4.4,4.4,0,0,1-3-5.92c.71-1.54,3.38-2.77,5.31-2.52a4.33,4.33,0,0,1,4,4.76C21.41,143.87,18.18,145.31,15.54,144.65ZM18.59,138A2.55,2.55,0,0,0,15,139.36a2.82,2.82,0,0,0,1.16,3.45c1.37.68,2.79-.51,3.15-1.79C19.6,140.09,19.59,138.47,18.59,138Z"/><path class="cls-2" d="M0,151.37c6,4.74,4.19,19,0,24.92-.21.31-.06-1.21.08-1.63,1.42-4.33,2.55-8.18,2.67-12.28s-1.33-6.7-2.89-10.17C-.24,152-.14,151.26,0,151.37Z"/><path class="cls-2" d="M123.62,206.28a10,10,0,0,0-7.34-8.52c-7.44-1.86-13.45,7.54-7.71,13.07.48.47,2.65.44,2.06-.58-1.21-2.09-2.12-4.2-1.27-6.68,1.91-5.52,10-3.18,11.31,1.67,1.43,5.21-2.14,9.77-5.39,13.43-6.26,7.05-13.68,13-20.47,19.48-7.82,7.47-17.89,16.6-20.12,29.55-2.18-13-12.17-22.07-20-29.55-6.79-6.49-14.21-12.43-20.47-19.48C31,215,27.4,210.45,28.83,205.24c1.32-4.85,9.4-7.19,11.31-1.67.85,2.48-.06,4.59-1.27,6.68-.59,1,1.58,1.05,2.06.58,5.74-5.53-.27-14.93-7.71-13.07a10,10,0,0,0-7.34,8.52c-.67,4.66,2.12,8.83,5,12.2,8.79,10.27,20.38,17.66,29.3,27.82,3.55,4,7.11,8.22,9.54,13.06s3.17,10.1,4.06,15.79a.83.83,0,0,0,.84.69c.57,0,.88-.25.94-.63.89-5.68,1.7-10.86,4.2-15.85,2.43-4.84,6-9,9.54-13.06,8.92-10.16,20.51-17.55,29.3-27.82C121.5,215.11,124.29,210.94,123.62,206.28Z"/><path class="cls-2" d="M74.89,90.56a.19.19,0,0,1-.28,0c-6.68-6.31-7.7-20.37.1-25.22a0,0,0,0,1,.05,0C82.56,70.19,81.57,84.25,74.89,90.56ZM71.41,77.07c0,4.71,2.26,7.42,3.34,11.53,1.08-4.11,3.38-6.82,3.34-11.53a18.09,18.09,0,0,0-3.36-9.67l0,0A17.93,17.93,0,0,0,71.41,77.07Z"/><path class="cls-2" d="M116.59,167.57A54.47,54.47,0,0,1,107,185.78a17.32,17.32,0,0,1-8.29,5.59c0,.16-.07.31-.1.47-1.47,6.21-5.45,12.26-9,17.45s-7.29,11-12.81,14.56c4.87,5.57,4.2,16.54-1.87,21.19a.08.08,0,0,1-.08,0h0a.08.08,0,0,1-.08,0c-6.07-4.65-6.74-15.62-1.87-21.19-5.52-3.54-9.12-9.23-12.81-14.56s-7.57-11.24-9-17.45c0-.16-.07-.31-.1-.47a17.32,17.32,0,0,1-8.29-5.59,54.47,54.47,0,0,1-9.64-18.21C31.15,162.05,29.3,154.7,31,149c2.48-8.28,15.92-11.54,22-5.71-2.17-7.45,1.17-17.23,4.67-23.32,2.39-4.17,5.53-7.81,8.47-11.58,3.48-4.49,8.28-15.07,8.48-15.48a.16.16,0,0,1,.22,0c.12.24,5,11,8.48,15.48,2.94,3.77,6.08,7.41,8.47,11.58,3.5,6.09,6.84,15.87,4.67,23.32,6.1-5.83,19.54-2.57,22,5.71C120.2,154.7,118.35,162.05,116.59,167.57ZM55.91,139.82a21,21,0,0,1,5.29-6.16,24.28,24.28,0,0,1,4.06-2.53,17.14,17.14,0,0,1-.75-2.67,7.68,7.68,0,0,1-.23-3.86c.08-.28.58-.22.7,0a16.58,16.58,0,0,1,1.11,4.13c.14.6.35,1.2.53,1.81a19.56,19.56,0,0,1,8.13-1.5,19.56,19.56,0,0,1,8.13,1.5c.18-.61.39-1.21.53-1.81a16.58,16.58,0,0,1,1.11-4.13c.12-.21.62-.27.7,0a7.68,7.68,0,0,1-.23,3.86,17.14,17.14,0,0,1-.75,2.67,24.28,24.28,0,0,1,4.06,2.53,21,21,0,0,1,5.29,6.16,18.55,18.55,0,0,0,0-9.7,42.34,42.34,0,0,0-6.84-13.92c-3.52-4.93-10.21-11.28-12-17.86-1.76,6.58-8.42,13-11.94,17.91A42.34,42.34,0,0,0,56,130.17C55.09,133.6,55.73,136.71,55.91,139.82ZM93,146c-1.34-3.57-2.5-6.88-5.36-9.79a20.86,20.86,0,0,0-7.08-4.43,18.6,18.6,0,0,0-5.79-1.11A18.6,18.6,0,0,0,69,131.74a20.86,20.86,0,0,0-7.08,4.43c-2.86,2.91-4,6.22-5.36,9.79a85.89,85.89,0,0,1,18.16-2.57l.07,0,.07,0A85.89,85.89,0,0,1,93,146Zm-60,9.7c5-3.95,13.5-7.16,20.46-8.84C50,140.3,41.18,141,36.21,145.64,33.49,148.19,32.88,152,33,155.66ZM52.76,190c3.75-.4,5.46-1.23,5.78-3.55.26-1.91-2.5-4.25-5-1.6C52,186.4,52.56,188.66,52.76,190Zm22,33.85a20.52,20.52,0,0,0-2.9,10.3,17.16,17.16,0,0,0,2.9,9.41,17.16,17.16,0,0,0,2.9-9.41A20.52,20.52,0,0,0,74.75,223.83Zm21.25-39c-2.54-2.65-5.3-.31-5,1.6.32,2.32,2,3.15,5.78,3.55C96.94,188.66,97.51,186.4,96,184.83Zm19.56-21.26c-4-3.19-8.13-4.5-12.12-4.1,1.25,1.68,2.09,3.72,1.42,5.76a6.75,6.75,0,0,1-5.92,4.19c-5.46-.12-4.38-7.1-.76-10a11.57,11.57,0,0,1,1.31-.93c-5.13-5-15.9-5.83-22.75-6.27,7.36,7.69,8.51,25.1-1,31.8-.58.4-.92.73-1.88,0-9.3-7.06-8.41-24.11-1-31.8-6.85.44-17.62,1.24-22.75,6.27a11.57,11.57,0,0,1,1.31.93c3.62,2.89,4.7,9.87-.76,10a6.75,6.75,0,0,1-5.92-4.19c-.67-2,.17-4.08,1.42-5.76-4-.4-8.09.91-12.12,4.1,1.71,7.84,5.73,16.27,11,21.93a14.52,14.52,0,0,0,5.7,4.12c-.29-3.27.57-6.7,4.22-7.58,2.54-.61,5.26.54,5.7,3.31.57,3.68-2.81,6.05-6,6.31-.43,0-.85,0-1.27,0,.91,3.69,3.07,7.41,4.86,10.6,4.65,8.3,10.4,14,16.66,20.91v0c6.26-6.91,12-12.61,16.66-20.91,1.79-3.19,4-6.91,4.86-10.6-.42,0-.84,0-1.27,0-3.21-.26-6.59-2.63-6-6.31.44-2.77,3.16-3.92,5.7-3.31,3.65.88,4.51,4.31,4.22,7.58a14.52,14.52,0,0,0,5.7-4.12C109.83,179.84,113.85,171.41,115.56,163.57ZM48,166.1c1.05,1.39,3.32,2.21,3.75-.5.41-2.5-2.31-5.1-3.18-5.62C47.88,160.75,46,163.48,48,166.1Zm21.21,3.54c.19,5.51,2.61,9.06,5.57,13.11,3-4.05,5.38-7.6,5.57-13.11.24-6.51-1.95-11.6-5.53-17.37l0-.08,0,.08C71.13,158,68.94,163.13,69.18,169.64Zm28.6-4c.43,2.71,2.7,1.89,3.75.5,2-2.62.09-5.35-.57-6.12C100.09,160.5,97.37,163.1,97.78,165.6Zm18.63-7.38c-4.7-4-12.25-6.93-19.38-8.92a132.28,132.28,0,0,0-22.28-4.06,132.28,132.28,0,0,0-22.28,4.06c-7.13,2-14.68,4.93-19.38,8.92,0,.49.09,1,.14,1.46.07.65.16,1.31.27,2,3.52-3,9.56-5.2,14.24-4.05l.17-.16c6.36-5.79,18.64-7,26.72-6.81.05,0,.08,0,.12,0s.07,0,.12,0c8.08-.2,20.36,1,26.72,6.81l.17.16c4.68-1.15,10.72,1,14.24,4.05.11-.66.2-1.32.27-2C116.32,159.2,116.37,158.71,116.41,158.22Zm.14-2.56c.07-3.69-.54-7.47-3.26-10-5-4.65-13.81-5.34-17.2,1.18C103.05,148.5,111.55,151.71,116.55,155.66Z"/><path class="cls-2" d="M1.63,29.87c-3.14-.2-6.49.48-8.79,3a10.64,10.64,0,0,0-2.3,4.24,8.65,8.65,0,0,1-.9,2.6,1,1,0,0,1-.51.37.89.89,0,0,1-.7-.1C-15.19,36.83-20,36-24,39.08c-3.09,2.41-3.77,6-4.34,9.69a1,1,0,0,1-.77.71.93.93,0,0,1-.68.14,13.7,13.7,0,0,0-14.61,7c-2.36,4.27-2,8.7-.48,13.1a25.35,25.35,0,0,1,12.81,2.33,33.12,33.12,0,0,1,8.35,5.86c-.15-.21-.29-.43-.44-.65A89.12,89.12,0,0,0-34.3,66.07c-2.47-2.42-6.8-8.52-.79-9.76C-28.91,55-22.28,64.21-18.9,68.2c1.24,1.46,2.59,3,3.91,4.73-5.08-12.61-10.22-28.64-3.61-29.62,5.57-.83,8,9.45,9.23,12.95s2.61,7.23,3.81,11.09a136.72,136.72,0,0,1-.86-13.84c0-5.17-1.27-17.35,6.17-17.85.79,0,1,.92.19,1.05C-6.85,37.76-4.37,57.19-4,62c.58,7.61,1.82,14.85,2.71,22.42a4.25,4.25,0,0,1,2-.09C1,84.42,1.4,86,1.14,86-3,85.71-6,87.61-7.94,88.75a31.61,31.61,0,0,0-5,3.88c1,1.92,1.94,3.86,2.78,5.78,2.44-2.34,7.36-5.06,10.92-4.74.27,0,.45,1.61,0,1.58C-2.73,95-5,96.93-7.22,98.56a26.15,26.15,0,0,0-2.16,1.72,91.74,91.74,0,0,1,5.5,19.08c.55,3.07,1.07,6.13,1.34,9.24.15,1.63-.28,6.63,1.85,7.68a1.45,1.45,0,0,0,1.48-.13,9.32,9.32,0,0,0-.9,1.49c-.59,7.69-5.43,13.27-7.45,20.47-1.38,4.89-.28,10.07,1.74,14.61,1.35,3,3.42,5.71,4.86,8.67a7.31,7.31,0,0,0,1.12,1.76s.13.06.12.11.13.31.09.33a2,2,0,0,0-1.65.53,5,5,0,0,0-1.41,2.31c-.42,1.35-.06,2.44,0,3.78h0A10.93,10.93,0,0,1,1.82,190c.34.13-.8,1.33-1.1,1.36-11.76,1.22-11.08,15.68-8.26,23.3.38,1.05-1.77,1.29-2.13.38-2.34-5.86-2.94-13.68.44-19.32A13.48,13.48,0,0,1-4,190.68c-2.07,0-9.52-1.88-13.13-4.5-3.13-2.27-7.39-6.71-7.7-10.73,0-.42,3.77-.73,5.19-.62a31.74,31.74,0,0,1,8.72,2.34A40.22,40.22,0,0,1-4.54,180c-3.82-5.36-6.32-12.64-5.78-18.75.38-4.35,2.62-7.84,4.48-11.67a66.43,66.43,0,0,0,4-12.34c-1.55-.91-2-2.64-2.37-4.65-.13-.74-.26-1.48-.4-2.22-2.33-2.11-9.86-12.26-17.38-14.82-4.79-1.64-9.5-1.19-13.55,1.88-1.9,1.45-3.38,3-5.61,3.89-.45.18-1.54.13-1.68-.51-2-9.59,7.38-15.25,15.91-14.1,8.3,1.12,15.85,7.88,20.76,15.31-.46-2.29-1-4.57-1.53-6.85-3-11.71-7.5-23.24-15.35-32.61-7.71-9.21-25.52-17.43-33.78-4a15.3,15.3,0,0,0,.7,17c3.73,4.77,11.16,5.11,14.53-.22a10.43,10.43,0,0,0-.3-11c-.38-.63.75-.84,1.1-.43,7.17,8.55-2.28,20.29-12.37,16.13C-62,96.44-63.44,83.73-58.22,76.64a15.83,15.83,0,0,1,5-4.41l-.16,0C-67.73,69.29-75.6,52.82-70.75,39.53A25,25,0,0,1-59.31,26a9.3,9.3,0,0,1,.9-.43C-56.94,12-42.67,2-32.47-5.17c5.94-4.18,12-8.29,17.67-12.88a46.06,46.06,0,0,0,8.06-8.27A115.69,115.69,0,0,0,0-37.67c.16-.28.43.59.35,1.09-1.44,9.94-10.63,17.46-18.19,23.13-10.61,8-22.68,14.92-31.22,25.24-2.57,3.11-4.93,6.54-6,10.49-.2.73-.36,1.53-.5,2.33,3.19-.75,6.6-.37,8.56,2.64,5.12,7.87-10.93,12.41-11.52,1.84,0-.21,0-.41,0-.62a23.76,23.76,0,0,0-2.39,1.76,24,24,0,0,0-6.44,8.57c-6.18,13.7,2.18,26.57,14.93,31.89l.1,0a22.2,22.2,0,0,1,2.67-23.43c3.29-4.22,10.73-8.29,16.32-6.18A14,14,0,0,1-15.92,29.3a17.8,17.8,0,0,1-2.56-3.87c-2-1.91-3.67-4.14-6.26-5.36a13.85,13.85,0,0,0-13.36.72c-.57.33-2.39.39-2.26-.69.75-5.81,6.07-9.06,11.7-8.32a13.31,13.31,0,0,1,8.22,4.64A18.46,18.46,0,0,1-19,9.68c2-4.66,5.87-8,9.35-11.54,4.25-4.29,7.18-9.6,9.6-15.45.17-.43.48,1.22.52,1.69a9.78,9.78,0,0,1-.39,2.81C0-8.09-3.44-3.17-4.82,1.1-7.37,9-5,16.1,0,22.4c.11.13.36.38.37.49.22.12.29.58,0,.58A15.23,15.23,0,0,0-7.33,25.6c-2.36,1.58-3.29,3.54-4.69,5.86a1.08,1.08,0,0,1-1.12.3h0C-22.1,28.51-30,32.81-31.94,42.06a.38.38,0,0,1-.16.23.53.53,0,0,1-.34.14,1.41,1.41,0,0,1-.41,0c-7-.56-12.7,2.15-16.27,8.36-3.9,6.81-3.41,13-.92,20a21.33,21.33,0,0,1,3-.76,16,16,0,0,1,3.24-17.48c3.27-3.36,8.63-5.87,13.28-4.42.33-5.12,2.76-10.11,7.83-12a11.09,11.09,0,0,1,10.6,1.71c.14-2.43,2.53-5.59,3.88-6.73,2.3-1.95,7.07-3.88,10.07-2.89C2.27,28.39,2.08,29.9,1.63,29.87ZM-13,29.52c1.53-3.7,6.57-6.68,10.65-7C-6,17.5-8.57,11.92-7.71,5.59c.45-3.35,1.85-6.45,3.15-9.53.08-.19.15-.39.23-.58-2.54,3-5.64,5.68-8,8.29C-19.32,11.65-19.5,21.4-13,29.52Zm-7.15-9.36c0-.12,0-.23-.06-.35a13.38,13.38,0,0,0-5.37-5.12c-4.42-2.18-9.68-.87-11.55,3.51C-31.57,16.23-24.77,16.6-20.17,20.16Zm-35.67,7c0,.44,0,.88,0,1.3.08,3,5,7.58,6.86,3C-47.43,27.69-52.79,26.26-55.84,27.12ZM-2.66,183.43a41.4,41.4,0,0,0-20-6.77,26.73,26.73,0,0,0,6.93,7.79c3.28,2.56,7.2,3.57,11,4.91A6.58,6.58,0,0,1-3.87,185,7.53,7.53,0,0,1-2.66,183.43Zm-4.55-59.12c-3.22-4.51-6.63-8.7-11.37-12.1-4.27-3.06-9.6-5.13-14.84-3.45a10.12,10.12,0,0,0-7.31,10.46c3.16-1.71,5.39-4.78,9-5.86a18.17,18.17,0,0,1,10.65.37C-15.58,115.49-10.78,119.57-7.21,124.31ZM-14.89,66.4c2.29,6.76,5.39,13.35,7.88,20A22.54,22.54,0,0,1-3.22,85c-2.94-7-4-15.09-6.31-22.31-1.12-3.47-2.34-6.92-3.71-10.3-.52-1.3-2.2-6.22-3.55-6.6C-22.56,44.1-15.62,64.25-14.89,66.4Zm-7.34,9.3C-19,80.07-14,90.77-13.9,90.89a18.08,18.08,0,0,1,4.74-3.46,75.67,75.67,0,0,0-9.7-16c-2.45-3-6.34-8.49-11.63-11.89-2.54-1.64-5.43-1.19-4.32,2.21.84,2.54,4.41,4.76,6.25,6.63A68.23,68.23,0,0,1-22.23,75.7Zm-29.69-4.14h0v0A.05.05,0,0,1-51.92,71.56Z"/><path class="cls-2" d="M0,151.37c-6,4.74-4.18,18.49,0,24.93.2.32.09-1.22,0-1.64-1.42-4.33-2.55-8.18-2.67-12.28s1.33-6.7,2.89-10.17C.24,152,.1,151.26,0,151.37Z"/><path class="cls-2" d="M123.62-31.72a10,10,0,0,0-7.34-8.52c-7.44-1.86-13.45,7.54-7.71,13.07.48.47,2.65.44,2.06-.58-1.21-2.09-2.12-4.2-1.27-6.68,1.91-5.52,10-3.18,11.31,1.67,1.43,5.21-2.14,9.77-5.39,13.43-6.26,7-13.68,13-20.47,19.48C87,7.62,76.92,16.75,74.69,29.7c-2.18-13-12.17-22.07-20-29.55C47.9-6.34,40.48-12.28,34.22-19.33,31-23,27.4-27.55,28.83-32.76c1.32-4.85,9.4-7.19,11.31-1.67.85,2.48-.06,4.59-1.27,6.68-.59,1,1.58,1.05,2.06.58,5.74-5.53-.27-14.93-7.71-13.07a10,10,0,0,0-7.34,8.52c-.67,4.66,2.12,8.83,5,12.2C39.68-9.25,51.27-1.86,60.19,8.3c3.55,4,7.11,8.22,9.54,13.06,2.5,5,3.17,10.1,4.06,15.79a.83.83,0,0,0,.84.69c.57,0,.88-.25.94-.63.89-5.68,1.7-10.86,4.2-15.85,2.43-4.84,6-9,9.54-13.06,8.92-10.16,20.51-17.55,29.3-27.82C121.5-22.89,124.29-27.06,123.62-31.72Z"/><path class="cls-2" d="M116.59-70.43A54.47,54.47,0,0,1,107-52.22a17.32,17.32,0,0,1-8.29,5.59c0,.16-.07.32-.1.47-1.47,6.21-5.45,12.26-9,17.45s-7.29,11-12.81,14.56C81.58-8.58,80.91,2.39,74.84,7a.08.08,0,0,1-.08,0h0a.08.08,0,0,1-.08,0c-6.07-4.65-6.74-15.62-1.87-21.19C67.27-17.69,63.67-23.38,60-28.71s-7.57-11.24-9-17.45c0-.15-.07-.31-.1-.47a17.32,17.32,0,0,1-8.29-5.59,54.47,54.47,0,0,1-9.64-18.21C31.15-75.95,29.3-83.3,31-89c2.48-8.28,15.92-11.54,22-5.71-2.17-7.45,1.17-17.23,4.67-23.32,2.39-4.17,5.53-7.81,8.47-11.58,3.48-4.49,8.28-15.07,8.48-15.48a.16.16,0,0,1,.22,0c.12.24,5,11,8.48,15.48,2.94,3.77,6.08,7.41,8.47,11.58,3.5,6.09,6.84,15.87,4.67,23.32,6.1-5.83,19.54-2.57,22,5.71C120.2-83.3,118.35-75.95,116.59-70.43ZM55.91-98.18a21,21,0,0,1,5.29-6.16,24.28,24.28,0,0,1,4.06-2.53,17.14,17.14,0,0,1-.75-2.67,7.68,7.68,0,0,1-.23-3.86c.08-.28.58-.22.7,0a16.58,16.58,0,0,1,1.11,4.13c.14.6.35,1.2.53,1.81a19.56,19.56,0,0,1,8.13-1.5,19.56,19.56,0,0,1,8.13,1.5c.18-.61.39-1.21.53-1.81a16.58,16.58,0,0,1,1.11-4.13c.12-.21.62-.27.7,0a7.68,7.68,0,0,1-.23,3.86,17.14,17.14,0,0,1-.75,2.67,24.28,24.28,0,0,1,4.06,2.53,21,21,0,0,1,5.29,6.16,18.52,18.52,0,0,0,0-9.69,42.3,42.3,0,0,0-6.84-13.93c-3.52-4.93-10.21-11.28-12-17.86-1.76,6.58-8.42,13-11.94,17.91A42.34,42.34,0,0,0,56-107.83C55.09-104.4,55.73-101.29,55.91-98.18ZM93-92c-1.34-3.57-2.5-6.88-5.36-9.79a20.86,20.86,0,0,0-7.08-4.43,18.6,18.6,0,0,0-5.79-1.11A18.6,18.6,0,0,0,69-106.26a20.86,20.86,0,0,0-7.08,4.43c-2.86,2.91-4,6.22-5.36,9.79a85.89,85.89,0,0,1,18.16-2.57l.07,0,.07,0A85.89,85.89,0,0,1,93-92Zm-60,9.7c5-4,13.5-7.16,20.46-8.84C50-97.7,41.18-97,36.21-92.36,33.49-89.81,32.88-86,33-82.34ZM52.76-48c3.75-.4,5.46-1.23,5.78-3.55.26-1.91-2.5-4.25-5-1.6C52-51.6,52.56-49.34,52.76-48Zm22,33.85a20.52,20.52,0,0,0-2.9,10.3,17.16,17.16,0,0,0,2.9,9.41,17.16,17.16,0,0,0,2.9-9.41A20.52,20.52,0,0,0,74.75-14.17ZM96-53.17c-2.54-2.65-5.3-.31-5,1.6.32,2.32,2,3.15,5.78,3.55C96.94-49.34,97.51-51.6,96-53.17Zm19.56-21.26c-4-3.19-8.13-4.5-12.12-4.1,1.25,1.68,2.09,3.72,1.42,5.76a6.75,6.75,0,0,1-5.92,4.19c-5.46-.12-4.38-7.1-.76-10a11.57,11.57,0,0,1,1.31-.93c-5.13-5-15.9-5.83-22.75-6.27,7.36,7.69,8.51,25.1-1,31.8-.58.4-.92.73-1.88,0-9.3-7.06-8.41-24.11-1-31.8-6.85.44-17.62,1.24-22.75,6.27a11.57,11.57,0,0,1,1.31.93c3.62,2.89,4.7,9.87-.76,10a6.75,6.75,0,0,1-5.92-4.19c-.67-2,.17-4.08,1.42-5.76-4-.4-8.09.91-12.12,4.1,1.71,7.84,5.73,16.27,11,21.93a14.52,14.52,0,0,0,5.7,4.12c-.29-3.27.57-6.7,4.22-7.58,2.54-.61,5.26.54,5.7,3.31.57,3.68-2.81,6-6,6.31-.43,0-.85,0-1.27,0,.91,3.69,3.07,7.41,4.86,10.6,4.65,8.3,10.4,14,16.66,20.91v0c6.26-6.91,12-12.61,16.66-20.91,1.79-3.19,4-6.91,4.86-10.6-.42,0-.84,0-1.27,0-3.21-.26-6.59-2.63-6-6.31.44-2.77,3.16-3.92,5.7-3.31,3.65.88,4.51,4.31,4.22,7.58a14.52,14.52,0,0,0,5.7-4.12C109.83-58.16,113.85-66.59,115.56-74.43ZM48-71.9c1.05,1.39,3.32,2.21,3.75-.5.41-2.5-2.31-5.1-3.18-5.62C47.88-77.25,46-74.52,48-71.9Zm21.21,3.54c.19,5.51,2.61,9.06,5.57,13.11,3-4,5.38-7.6,5.57-13.11.24-6.51-1.95-11.6-5.53-17.37a.29.29,0,0,1,0-.08.29.29,0,0,1,0,.08C71.13-80,68.94-74.87,69.18-68.36Zm28.6-4c.43,2.71,2.7,1.89,3.75.5,2-2.62.09-5.35-.57-6.12C100.09-77.5,97.37-74.9,97.78-72.4Zm18.63-7.38c-4.7-4-12.25-6.93-19.38-8.92a132.28,132.28,0,0,0-22.28-4.06A132.28,132.28,0,0,0,52.47-88.7c-7.13,2-14.68,4.93-19.38,8.92,0,.49.09,1,.14,1.46.07.65.16,1.31.27,2,3.52-3,9.56-5.19,14.24-4.05l.17-.16c6.36-5.79,18.64-7,26.72-6.81.05,0,.08,0,.12,0s.07,0,.12,0c8.08-.2,20.36,1,26.72,6.81l.17.16c4.68-1.14,10.72,1,14.24,4.05.11-.66.2-1.32.27-2C116.32-78.8,116.37-79.29,116.41-79.78Zm.14-2.56c.07-3.69-.54-7.47-3.26-10-5-4.65-13.81-5.34-17.2,1.18C103.05-89.5,111.55-86.29,116.55-82.34Z"/></pattern></defs><g id="Layer_2" data-name="Layer 2"><g id="Layer_2-2" data-name="Layer 2"><rect class="cls-3" width="3407" height="2037"/></g></g></svg>